<svg width="256" height="256" viewBox="0 0 256 256" xmlns="http://www.w3.org/2000/svg"><g style="stroke-width:2;stroke-miterlimit:4;stroke-dasharray:none"><path style="fill:none;stroke:#000;stroke-width:2;stroke-linecap:round;stroke-linejoin:round;stroke-miterlimit:4;stroke-dasharray:none;stroke-opacity:1" d="M55.033 63.5H12.7" transform="translate(16.003 .01) scale(3.77938)"/><path style="fill:none;stroke:#000;stroke-width:2;stroke-linecap:round;stroke-linejoin:round;stroke-miterlimit:4;stroke-dasharray:none" transform="matrix(3.77938 0 0 -3.77938 16.003 .01)" d="M4.233-55.033A8.467 8.467 0 0 1 12.7-63.5"/><path style="fill:none;stroke:#000;stroke-width:2;stroke-linecap:round;stroke-linejoin:round;stroke-miterlimit:4;stroke-dasharray:none" d="M4.233 55.033a8.467 8.467 0 0 1 8.467-8.466" transform="translate(16.003 .01) scale(3.77938)"/><path style="fill:none;stroke:#000;stroke-width:2;stroke-linecap:round;stroke-linejoin:round;stroke-miterlimit:4;stroke-dasharray:none;stroke-opacity:1" d="M55.033 46.567H12.7" transform="translate(16.003 .01) scale(3.77938)"/><path style="fill:none;stroke:#000;stroke-width:2;stroke-linecap:round;stroke-linejoin:round;stroke-miterlimit:4;stroke-dasharray:none" d="M4.233 12.7A8.467 8.467 0 0 1 12.7 4.233" transform="translate(16.003 .01) scale(3.77938)"/><path style="fill:none;stroke:#000;stroke-width:2;stroke-linecap:round;stroke-linejoin:round;stroke-miterlimit:4;stroke-dasharray:none;stroke-opacity:1" d="M55.033 4.233H12.7M4.233 12.7v42.333m8.467-8.466V4.23m42.333.003v42.334m0 0c-2.662 5.559-2.809 11.199 0 16.933" transform="translate(16.003 .01) scale(3.77938)"/></g></svg>
